<?xml version="1.0" encoding="UTF-8"?>
<svg width="285px" height="271px" viewBox="0 0 285 271" version="1.1" xmlns="http://www.w3.org/2000/svg" xmlns:xlink="http://www.w3.org/1999/xlink">
    <title>dapp@1x</title>
    <defs>
        <filter x="-0.9%" y="-5.0%" width="101.9%" height="110.0%" filterUnits="objectBoundingBox" id="filter-1">
            <feOffset dx="0" dy="2" in="SourceAlpha" result="shadowOffsetOuter1"></feOffset>
            <feGaussianBlur stdDeviation="2.5" in="shadowOffsetOuter1" result="shadowBlurOuter1"></feGaussianBlur>
            <feColorMatrix values="0 0 0 0 0   0 0 0 0 0   0 0 0 0 0  0 0 0 0.0629643794 0" type="matrix" in="shadowBlurOuter1" result="shadowMatrixOuter1"></feColorMatrix>
            <feMerge>
                <feMergeNode in="shadowMatrixOuter1"></feMergeNode>
                <feMergeNode in="SourceGraphic"></feMergeNode>
            </feMerge>
        </filter>
        <path d="M-1.20792265e-13,4.97379915e-14 L-1.20792265e-13,41.756 C-1.20792265e-13,45.951 3.4005,49.351 7.5955,49.351 L61.3155,49.351 C65.5095,49.351 68.9095,45.9505 68.9095,41.756 L68.9095,4.97379915e-14 L-1.20792265e-13,4.97379915e-14 L-1.20792265e-13,4.97379915e-14 Z" id="path-2"></path>
    </defs>
    <g id="Mon-compte" stroke="none" stroke-width="1" fill="none" fill-rule="evenodd">
        <g id="Rectangle" transform="translate(-764.000000, -102.000000)" filter="url(#filter-1)">
            <g id="dapp" transform="translate(774.000000, 112.000000)">
                <path d="M132.964193,0.035 C60.0639302,0.035 0.9645,56.0009507 0.9645,125.037034 C0.9645,194.068468 60.0639302,250.035 132.964193,250.035 C205.864456,250.035 264.9645,194.068468 264.9645,125.037034 C264.9645,56.0009507 205.864456,0.035 132.964193,0.035 Z" id="Path" fill="#EDF3FC" fill-rule="nonzero" opacity="0.200567336"></path>
                <path d="M235.982,137.527 C230.1905,136.0765 225.6695,131.5535 224.2185,125.764 L223.9705,124.7745 L223.7225,125.764 C222.2715,131.5535 217.751,136.0765 211.959,137.527 L210.9705,137.775 L211.959,138.0215 C217.751,139.473 222.2715,143.995 223.7225,149.786 L223.9705,150.7745 L224.2185,149.786 C225.6695,143.995 230.1905,139.473 235.982,138.0215 L236.972,137.775 L235.982,137.527 Z" id="Path" fill="#330D84" fill-rule="nonzero"></path>
                <path d="M120.1895,42.222 C114.1845,40.7175 109.4965,36.0275 107.9905,30.023 L107.7345,28.998 L107.4765,30.023 C105.9715,36.028 101.282,40.718 95.2775,42.222 L94.2525,42.4825 L95.2775,42.741 C101.2825,44.243 105.972,48.933 107.4765,54.936 L107.7345,55.9625 L107.9905,54.936 C109.497,48.933 114.185,44.243 120.1895,42.741 L121.215,42.4825 L120.1895,42.222 Z" id="Path" fill="#3D68FF" fill-rule="nonzero"></path>
                <path d="M113.42,179.669 C109.54,178.697 106.513,175.6675 105.5375,171.788 L105.373,171.1265 L105.2075,171.788 C104.2375,175.6675 101.206,178.6965 97.325,179.669 L96.666,179.8355 L97.325,180.0025 C101.206,180.973 104.237,184.0015 105.2075,187.882 L105.373,188.5435 L105.5375,187.882 C106.5125,184.0015 109.54,180.9735 113.42,180.0025 L114.082,179.8355 L113.42,179.669 Z" id="Path" fill="#FFBE1B" fill-rule="nonzero"></path>
                <circle id="Oval" fill="#3D68FF" fill-rule="nonzero" cx="142.5" cy="43.938" r="9.75"></circle>
                <circle id="Oval" fill="#8AC9F9" fill-rule="nonzero" cx="142.5" cy="180.8765" r="9.75"></circle>
                <circle id="Oval" fill="#3D68FF" fill-rule="nonzero" cx="74.0305" cy="112.407" r="9.75"></circle>
                <path d="M142.5,53.688 C141.6345,53.688 140.7995,53.564 140,53.3525 L140,80.992 L145,80.992 L145,53.3525 C144.2005,53.564 143.3655,53.688 142.5,53.688 Z" id="Path" fill="#330D84" fill-rule="nonzero"></path>
                <path d="M99.619,71.726 C98.8605,73.27 97.7245,74.565 96.341,75.5015 L108.4785,86.077 C109.05,84.446 110.1595,83.0715 111.5985,82.165 L99.619,71.726 Z" id="Path" fill="#330D84" fill-rule="nonzero"></path>
                <path d="M185.381,71.726 L173.4015,82.164 C174.8405,83.072 175.9505,84.446 176.5215,86.077 L188.659,75.5015 C187.2755,74.5655 186.1395,73.27 185.381,71.726 Z" id="Path" fill="#330D84" fill-rule="nonzero"></path>
                <path d="M83.4445,109.907 C83.656,110.7065 83.78,111.541 83.78,112.407 C83.78,113.2725 83.656,114.1075 83.4445,114.907 L108.0455,114.907 L108.0455,109.907 L83.4445,109.907 L83.4445,109.907 Z" id="Path" fill="#330D84" fill-rule="nonzero"></path>
                <path d="M176.5215,138.737 C175.95,140.369 174.841,141.743 173.4025,142.6505 L185.381,153.088 C186.14,151.544 187.2755,150.249 188.6595,149.313 L176.5215,138.737 Z" id="Path" fill="#330D84" fill-rule="nonzero"></path>
                <path d="M201.5555,109.907 L176.9545,109.907 L176.9545,114.907 L201.5555,114.907 C201.3435,114.1075 201.2195,113.2725 201.2195,112.407 C201.22,111.5415 201.344,110.7065 201.5555,109.907 Z" id="Path" fill="#330D84" fill-rule="nonzero"></path>
                <path d="M108.4785,138.737 L96.341,149.313 C97.725,150.249 98.8605,151.544 99.6195,153.088 L111.5985,142.65 C110.1595,141.7425 109.05,140.368 108.4785,138.737 Z" id="Path" fill="#330D84" fill-rule="nonzero"></path>
                <path d="M140,143.8235 L140,171.462 C140.7995,171.2505 141.6345,171.1265 142.5,171.1265 C143.3655,171.1265 144.2005,171.2505 145,171.462 L145,143.8235 L140,143.8235 Z" id="Path" fill="#330D84" fill-rule="nonzero"></path>
                <circle id="Oval" fill="#3D68FF" fill-rule="nonzero" cx="210.97" cy="112.407" r="9.75"></circle>
                <path d="M195.993,147.8195 C190.708,146.7865 185.5865,150.2315 184.5525,155.516 C183.5195,160.8005 186.9645,165.923 192.25,166.956 C197.534,167.9895 202.657,164.5445 203.6905,159.2595 C204.7235,153.9745 201.2785,148.8535 195.993,147.8195 Z" id="Path" fill="#FFBE00" fill-rule="nonzero"></path>
                <path d="M92.75,57.858 C87.466,56.8235 82.343,60.27 81.3095,65.555 C80.2765,70.84 83.7215,75.9615 89.007,76.995 C94.292,78.029 99.4135,74.5835 100.447,69.2985 C101.4805,64.0125 98.035,58.8915 92.75,57.858 Z" id="Path" fill="#FFBE00" fill-rule="nonzero"></path>
                <path d="M100.4475,155.516 C99.4135,150.2315 94.292,146.786 89.007,147.8195 C83.722,148.8535 80.2765,153.9745 81.3095,159.26 C82.343,164.5445 87.466,167.99 92.75,166.9565 C98.035,165.923 101.4805,160.801 100.4475,155.516 Z" id="Path" fill="#FFBE00" fill-rule="nonzero"></path>
                <path d="M203.6905,65.5545 C202.657,60.27 197.534,56.823 192.25,57.8575 C186.965,58.891 183.5195,64.0125 184.553,69.298 C185.5865,74.5825 190.708,78.0285 195.993,76.9945 C201.2785,75.961 204.7235,70.84 203.6905,65.5545 Z" id="Path" fill="#FFBE00" fill-rule="nonzero"></path>
                <path d="M169.361,80.992 L115.641,80.992 C111.4455,80.992 108.0455,84.392 108.0455,88.584 L108.0455,136.2275 C108.0455,140.4225 111.446,143.8225 115.641,143.8225 L169.361,143.8225 C173.555,143.8225 176.955,140.422 176.955,136.2275 L176.955,88.584 C176.955,84.392 173.5545,80.992 169.361,80.992 Z" id="Path" fill="#330D84" fill-rule="nonzero"></path>
                <path d="M149.6385,85.258 C148.3875,85.258 147.374,86.272 147.374,87.5225 C147.374,88.773 148.3875,89.7865 149.6385,89.7865 C150.889,89.7865 151.903,88.773 151.903,87.5225 C151.9035,86.272 150.889,85.258 149.6385,85.258 Z" id="Path" fill="#FFFFFF" fill-rule="nonzero"></path>
                <path d="M158.831,85.258 C157.5795,85.258 156.566,86.272 156.566,87.5225 C156.566,88.773 157.5795,89.7865 158.831,89.7865 C160.0815,89.7865 161.0955,88.773 161.0955,87.5225 C161.0955,86.272 160.0815,85.258 158.831,85.258 Z" id="Path" fill="#FFFFFF" fill-rule="nonzero"></path>
                <path d="M168.023,85.258 C166.772,85.258 165.7585,86.272 165.7585,87.5225 C165.7585,88.773 166.772,89.7865 168.023,89.7865 C169.2745,89.7865 170.2875,88.773 170.2875,87.5225 C170.2875,86.272 169.2745,85.258 168.023,85.258 Z" id="Path" fill="#FFFFFF" fill-rule="nonzero"></path>
                <g id="account" transform="translate(108.045500, 94.472000)">
                    <mask id="mask-3" fill="white">
                        <use xlink:href="#path-2"></use>
                    </mask>
                    <use id="Mask" fill="#6857E5" fill-rule="nonzero" xlink:href="#path-2"></use>
                    <g mask="url(#mask-3)" fill="#3E2AD1" fill-rule="nonzero" id="Account">
                        <g transform="translate(18.954500, 9.528000)">
                            <path d="M0,36.75 L0,28 C0.0973371475,26.09161 1.26106457,24.3935092 3.02222222,23.59 L3.02222222,23.59 C11.344927,20.2988613 20.6372952,20.2988613 28.96,23.59 L28.96,23.59 C30.7280771,24.3885702 31.8993283,26.087655 32,28 L32,36.75 C32,39.6494949 29.6121853,42 26.6666667,42 L5.33333333,42 C2.38781467,42 0,39.6494949 0,36.75 Z M16,0 C11.0908022,0 7.11111111,3.91750844 7.11111111,8.75 C7.11111111,13.5824916 11.0908022,17.5 16,17.5 C20.9091978,17.5 24.8888889,13.5824916 24.8888889,8.75 C24.8888889,6.42935571 23.9523836,4.20375898 22.2853936,2.56281566 C20.6184036,0.921872353 18.3574799,0 16,0 Z"></path>
                        </g>
                    </g>
                </g>
            </g>
        </g>
    </g>
</svg>